<svg id="Layer_1" viewBox="0 0 24 24" xmlns="http://www.w3.org/2000/svg" data-name="Layer 1"><path d="m21 17.051v2.042c.581.207 1 .757 1 1.408 0 .827-.673 1.5-1.5 1.5s-1.5-.673-1.5-1.5v-12.41c0-3.742-3.058-8.091-7-8.091s-7 4.349-7 8.091v12.409c0 .827-.673 1.5-1.5 1.5s-1.5-.673-1.5-1.5c0-.651.419-1.201 1-1.408v-2.042c-1.692.245-3 1.691-3 3.449 0 1.93 1.57 3.5 3.5 3.5s3.5-1.57 3.5-3.5v-3.5c0-.551.448-1 1-1s1 .449 1 1v7h2v-7c0-.551.448-1 1-1s1 .449 1 1v7h2v-7c0-.551.448-1 1-1s1 .449 1 1v3.5c0 1.93 1.57 3.5 3.5 3.5s3.5-1.57 3.5-3.5c0-1.758-1.308-3.204-3-3.449zm-11.5-6.051c-.828 0-1.5-.672-1.5-1.5s.672-1.5 1.5-1.5 1.5.672 1.5 1.5-.672 1.5-1.5 1.5zm5 0c-.828 0-1.5-.672-1.5-1.5s.672-1.5 1.5-1.5 1.5.672 1.5 1.5-.672 1.5-1.5 1.5z"/></svg>