<?xml version="1.0" encoding="UTF-8"?>
<svg version="1.1" xmlns="http://www.w3.org/2000/svg" width="512" height="512">
<path d="M0 0 C168.96 0 337.92 0 512 0 C512 168.96 512 337.92 512 512 C343.04 512 174.08 512 0 512 C0 343.04 0 174.08 0 0 Z " fill="#209CEE" transform="translate(0,0)"/>
<path d="M0 0 C14.07381592 3.17212969 23.85362221 11.31476562 32 23 C34.80093254 27.60856313 35.3965499 31.6214429 35 37 C33.9317569 39.63367382 32.84766682 41.96202274 31.5 44.4375 C31.14341309 45.13286865 30.78682617 45.8282373 30.41943359 46.54467773 C28.62963109 50.02275867 26.76087142 53.4294905 24.7578125 56.7890625 C18.13310021 68.22536072 17.24488272 78.95644745 17 92 C16.98257751 92.84834412 16.96515503 93.69668823 16.94720459 94.57073975 C16.80792537 101.65115222 16.73502636 108.7309349 16.6875 115.8125 C16.67750977 116.83071838 16.66751953 117.84893677 16.65722656 118.89801025 C16.63341439 121.85542231 16.63175649 124.81204197 16.63671875 127.76953125 C16.6230854 129.09201118 16.6230854 129.09201118 16.60917664 130.44120789 C16.66235312 137.81301136 17.85830533 144.78745799 22 151 C39.10597095 150.27208634 55.48747432 128.77966308 66.75 117.3125 C68.63059329 115.40419422 70.51272323 113.49746242 72.39776611 111.59355164 C73.55581191 110.42332458 74.71117433 109.25043422 75.86346436 108.07453918 C80.74237102 103.13379032 80.74237102 103.13379032 84.9375 102.6875 C88 103 88 103 89.8125 104.6875 C93.55372839 111.97305002 92.95542211 121.78216094 91.19921875 129.53515625 C82.24677131 156.82320051 59.4995965 176.67385072 34.625 189.3125 C32.75291766 190.21441467 30.87832127 191.11115154 29 192 C27.88625 192.556875 26.7725 193.11375 25.625 193.6875 C14.94962886 197.55272058 0.78880161 201.10271278 -10.12890625 196.22265625 C-21.7782299 188.61046773 -25.41216062 174.60754732 -29 162 C-29.3403125 162.54527344 -29.680625 163.09054687 -30.03125 163.65234375 C-43.16981742 184.09399785 -61.15343468 194.34405458 -84.39501953 199.53491211 C-102.71527686 202.80577342 -122.23468567 199.81858589 -138 190 C-152.19894101 179.46471386 -159.98696861 165.1940071 -163 148 C-163.28004951 145.15888451 -163.33442026 142.3537043 -163.3125 139.5 C-163.30686035 138.69812256 -163.3012207 137.89624512 -163.29541016 137.07006836 C-162.53222854 97.23727715 -149.40361325 62.08480079 -120.55078125 34.2421875 C-106.94215037 21.5438203 -91.17911323 12.20157995 -73 8 C-72.06994141 7.73727295 -72.06994141 7.73727295 -71.12109375 7.46923828 C-64.39639325 5.70132335 -57.71621215 5.6277317 -50.79052734 5.62939453 C-48.76703635 5.62503669 -46.7457613 5.58865606 -44.72265625 5.55078125 C-34.406216 5.5204685 -25.18438073 7.13430217 -16 12 C-15.938125 11.46375 -15.87625 10.9275 -15.8125 10.375 C-13.2753175 2.95862039 -7.62092456 -1.05209224 0 0 Z " fill="#FDFEFE" transform="translate(391,206)"/>
<path d="M0 0 C1.61165857 0.0007329 3.22331766 0.00067005 4.8349762 -0.00012207 C9.14206953 0.00071396 13.44901631 0.01478137 17.75606918 0.03262711 C20.44045683 0.04301041 23.12483398 0.05016486 25.80923462 0.0562439 C37.74489196 0.08371249 49.68022922 0.14025791 61.61568451 0.21411133 C64.25853568 0.230188 66.90139098 0.24513006 69.54425049 0.25976562 C79.20988062 0.31439402 88.87502186 0.38920487 98.54022217 0.49594116 C101.49743757 0.52846062 104.45460861 0.55487641 107.41192627 0.57608032 C111.50541793 0.60629562 115.5982103 0.66099269 119.69140625 0.71875 C120.89076309 0.72515503 122.09011993 0.73156006 123.32582092 0.73815918 C133.58178011 0.92215198 133.58178011 0.92215198 138.3046875 4.23046875 C140.10762156 7.83633687 139.84588473 11.55973311 138.61523438 15.35888672 C137.65700854 17.66239246 136.62684502 19.91529736 135.5546875 22.16796875 C135.20664062 22.92787109 134.85859375 23.68777344 134.5 24.47070312 C133.45599143 26.73465503 132.38587961 28.98406299 131.3046875 31.23046875 C130.94858398 31.97852783 130.59248047 32.72658691 130.22558594 33.49731445 C129.88043945 34.20847412 129.53529297 34.91963379 129.1796875 35.65234375 C128.71949219 36.60318848 128.71949219 36.60318848 128.25 37.57324219 C125.68548363 42.06909372 121.36524068 43.89874254 116.66992188 45.60424805 C112.21255629 46.78438252 107.76022263 46.57581411 103.1796875 46.48046875 C102.07729736 46.46878662 100.97490723 46.45710449 99.83911133 46.44506836 C95.99372498 46.39505346 92.14940666 46.31564045 88.3046875 46.23046875 C86.77555501 46.19865244 85.24642083 46.16691708 83.71728516 46.13525391 C65.56986569 45.7502091 47.42895142 45.25186012 29.3046875 44.23046875 C29.33949219 45.44992188 29.37429687 46.669375 29.41015625 47.92578125 C29.40416925 54.06843885 28.51747362 60.03931553 27.6171875 66.10546875 C27.43784668 67.33652344 27.25850586 68.56757813 27.07373047 69.8359375 C25.69167726 79.11120804 24.05206532 88.32259671 22.30200195 97.53442383 C17.95940382 120.47220777 14.31705834 143.53429059 10.99047852 166.6394043 C10.08340209 172.93934389 9.16151253 179.23173829 8.09619141 185.50708008 C3.48565469 212.8364339 0.73271332 241.09043344 0.140625 268.78515625 C0.10038208 270.34109497 0.10038208 270.34109497 0.05932617 271.9284668 C0.01649072 273.83581268 -0.00626367 275.74378786 -0.00268555 277.65161133 C-0.14682068 284.33029213 -1.90696012 289.68200141 -5.6953125 295.23046875 C-8.19997333 297.39970641 -10.68742122 298.85607648 -13.6953125 300.23046875 C-14.30117187 300.524375 -14.90703125 300.81828125 -15.53125 301.12109375 C-24.15909203 304.83434222 -33.84808638 305.4047005 -43.1328125 305.60546875 C-44.43089844 305.63382812 -45.72898437 305.6621875 -47.06640625 305.69140625 C-51.35645469 305.14649159 -53.43492691 304.04429196 -56.6953125 301.23046875 C-66.55221123 280.801322 -61.00681852 249.82641418 -57.6953125 228.23046875 C-57.4614273 226.66104252 -57.22806188 225.09153876 -56.99511719 223.52197266 C-53.41784078 199.55998106 -49.02195416 175.93985323 -43.2310791 152.41534424 C-42.67951462 150.16604444 -42.13520869 147.91509208 -41.59277344 145.66357422 C-33.2269421 110.97178947 -23.88927333 76.64701188 -8.6953125 44.23046875 C-10.1803125 44.72546875 -10.1803125 44.72546875 -11.6953125 45.23046875 C-13.72752926 45.40435946 -15.76014574 45.57471017 -17.79443359 45.72241211 C-39.70068809 47.41842118 -60.6934754 54.24501053 -81.66162109 60.44702148 C-82.4564389 60.6813237 -83.25125671 60.91562592 -84.07015991 61.1570282 C-85.55440337 61.59525421 -87.03789452 62.03604103 -88.52041626 62.48005676 C-95.4455925 64.52511343 -102.3620999 66.53271457 -109.6328125 66.41796875 C-110.54933594 66.41152344 -111.46585938 66.40507812 -112.41015625 66.3984375 C-114.6953125 66.23046875 -114.6953125 66.23046875 -116.6953125 65.23046875 C-117.51033969 57.56921319 -114.44668777 52.68209384 -109.74609375 46.78515625 C-107.4723747 44.18078865 -105.12082587 41.69399957 -102.6953125 39.23046875 C-101.89351562 38.41578125 -101.09171875 37.60109375 -100.265625 36.76171875 C-73.58254499 11.13298537 -36.3063902 -0.18065399 0 0 Z " fill="#FDFEFE" transform="translate(146.6953125,103.76953125)"/>
<path d="M0 0 C-0.62796664 4.4415557 -1.27833463 8.8793669 -1.9375 13.31640625 C-2.29180341 15.73175078 -2.64596602 18.14711597 -3 20.5625 C-3.26683594 22.34237305 -3.26683594 22.34237305 -3.5390625 24.15820312 C-5.25165575 35.9226963 -6.02824188 47.54355057 -6.13720703 59.42578125 C-6.31188852 71.62295873 -7.04966486 81.24882628 -13 92 C-13.5053125 93.03511719 -14.010625 94.07023437 -14.53125 95.13671875 C-21.81045781 109.07069253 -32.40517667 117.50817166 -46.9140625 123.12890625 C-50.38807364 124.10954484 -53.39329407 124.30063584 -57 124.3125 C-58.175625 124.32925781 -59.35125 124.34601563 -60.5625 124.36328125 C-65.69571644 123.8207936 -69.71275095 121.89971321 -73.125 118 C-82.07330678 106.57913477 -81.11901074 92.17194545 -79.52734375 78.45703125 C-76.84447579 59.36830701 -68.31725984 43.85623832 -55 30 C-54.26652344 29.21496094 -53.53304688 28.42992187 -52.77734375 27.62109375 C-47.64650619 22.27307789 -42.25032478 17.97079457 -36 14 C-35.0615625 13.401875 -34.123125 12.80375 -33.15625 12.1875 C-23.57120139 6.33557558 -11.55599172 0 0 0 Z " fill="#219CEE" transform="translate(367,239)"/>
<path d="M0 0 C0.33 0 0.66 0 1 0 C1 13.53 1 27.06 1 41 C-12.53 41 -26.06 41 -40 41 C-36.77794772 39.38897386 -33.66489916 38.09649079 -30.3125 36.8125 C-16.32964928 30.99481758 -7.86955879 20.70813891 -2 7 C-1.17794005 4.65968578 -0.55034658 2.42152494 0 0 Z " fill="#000000" transform="translate(511,471)"/>
<path d="M0 0 C1.61102614 3.22205228 2.90350921 6.33510084 4.1875 9.6875 C10.00518242 23.67035072 20.29186109 32.13044121 34 38 C36.34031422 38.82205995 38.57847506 39.44965342 41 40 C41 40.33 41 40.66 41 41 C27.47 41 13.94 41 0 41 C0 27.47 0 13.94 0 0 Z " fill="#000000" transform="translate(0,471)"/>
<path d="M0 0 C13.53 0 27.06 0 41 0 C41 13.53 41 27.06 41 41 C39.38897386 37.77794772 38.09649079 34.66489916 36.8125 31.3125 C30.99481758 17.32964928 20.70813891 8.86955879 7 3 C4.65968578 2.17794005 2.42152494 1.55034658 0 1 C0 0.67 0 0.34 0 0 Z " fill="#000000" transform="translate(471,0)"/>
<path d="M0 0 C13.53 0 27.06 0 41 0 C37.77794772 1.61102614 34.66489916 2.90350921 31.3125 4.1875 C17.32964928 10.00518242 8.86955879 20.29186109 3 34 C2.17794005 36.34031422 1.55034658 38.57847506 1 41 C0.67 41 0.34 41 0 41 C0 27.47 0 13.94 0 0 Z " fill="#000000" transform="translate(0,0)"/>
</svg>
